# xmcd
#
# Track frame offsets: 
#        150
#        12573
#        24722
#        35563
#        47422
#        56519
#        66756
#        75725
#        85562
#        100476
#        109499
#        119446
#
# Disc length: 1744 seconds
#
# Revision: 0
# Processed by: cddbd v1.5.2PL0 Copyright (c) Steve Scherf et al.
# Submitted via: ExactAudioCopy v0.99pb4
#
DISCID=9c06ce0c
DTITLE=Mary Wells - The Complete 20th Century Fox Recordings CD2
DYEAR=1965
DGENRE=Soul
TTITLE0=He Loves You
TTITLE1=All My Lovin'
TTITLE2=Please Please Me
TTITLE3=Do You Want To Know A Secret
TTITLE4=Can't Buy Me Love
TTITLE5=I Should Have Known Better
TTITLE6=Help
TTITLE7=Eight Days A Week
TTITLE8=And I Love Him
TTITLE9=Ticket To Ride
TTITLE10=Yesterday
TTITLE11=I Saw Him Standing There
EXTD=
EXTT0=
EXTT1=
EXTT2=
EXTT3=
EXTT4=
EXTT5=
EXTT6=
EXTT7=
EXTT8=
EXTT9=
EXTT10=
EXTT11=
PLAYORDER=
